<svg width="135" height="28" viewBox="0 0 135 28" fill="none" xmlns="http://www.w3.org/2000/svg">
<g id="Group">
<path id="Vector" d="M0 9.33557V14.2601C1.69031 14.2589 3.36427 14.5896 4.92608 15.2331C6.4879 15.8767 7.90692 16.8206 9.10195 18.0107C10.2967 19.2004 11.2442 20.6128 11.8902 22.1673C12.5363 23.7218 12.8683 25.3878 12.8672 27.0701H17.8102C17.8057 22.3686 15.9279 17.8608 12.589 14.536C9.24998 11.2112 4.7225 9.34095 0 9.33557H0Z" fill="black"/>
<path id="Vector_2" d="M24.7197 0.470093H16.8862C20.849 2.97024 24.2069 6.31265 26.7187 10.2575V2.45879C26.7184 1.93123 26.5076 1.4254 26.1327 1.05248C25.7579 0.679571 25.2497 0.470093 24.7197 0.470093Z" fill="black"/>
<path id="Vector_3" d="M4.92187 0.470093H0V4.90389C5.90327 4.91001 11.563 7.24731 15.7373 11.4029C19.9116 15.5586 22.2595 21.1931 22.2659 27.0701H26.7187V22.1701C25.712 16.7847 23.0906 11.829 19.1999 7.95554C15.3091 4.08208 10.3313 1.4724 4.92187 0.470093Z" fill="black"/>
<path id="Vector_4" d="M38.8341 3.39819H35.6968V19.1412H38.8341V3.39819Z" fill="black"/>
<path id="Vector_5" d="M50.37 10.219C49.8477 9.74631 49.2363 9.38156 48.5714 9.14587C47.143 8.64653 45.5863 8.64653 44.1579 9.14587C43.4926 9.38139 42.881 9.74615 42.3586 10.219C41.8462 10.6892 41.4369 11.2597 41.1562 11.8948C40.8661 12.5875 40.7168 13.3307 40.7168 14.0812C40.7168 14.8318 40.8661 15.5749 41.1562 16.2677C41.4358 16.9045 41.8452 17.4766 42.3586 17.9477C42.8801 18.4208 43.4914 18.7854 44.1565 19.0201C45.5847 19.5203 47.1417 19.5203 48.57 19.0201C49.2353 18.7854 49.8468 18.4208 50.3686 17.9477C50.8817 17.4764 51.2911 16.9044 51.5709 16.2677C51.861 15.5749 52.0103 14.8318 52.0103 14.0812C52.0103 13.3307 51.861 12.5875 51.5709 11.8948C51.2905 11.26 50.8817 10.6895 50.37 10.219ZM48.2156 15.9352C47.7076 16.3908 47.048 16.6429 46.3643 16.6429C45.6805 16.6429 45.021 16.3908 44.5129 15.9352C44.0859 15.4104 43.8529 14.7555 43.8529 14.0802C43.8529 13.4048 44.0859 12.75 44.5129 12.2252C45.021 11.7696 45.6805 11.5174 46.3643 11.5174C47.048 11.5174 47.7076 11.7696 48.2156 12.2252C48.6426 12.75 48.8756 13.4048 48.8756 14.0802C48.8756 14.7555 48.6426 15.4104 48.2156 15.9352Z" fill="black"/>
<path id="Vector_6" d="M61.633 10.3541H61.5936C61.4485 10.1513 61.28 9.96616 61.0916 9.80248C60.8633 9.60144 60.6105 9.42976 60.3392 9.29148C59.6535 8.94118 58.8923 8.76266 58.1216 8.77138C57.4462 8.75961 56.7783 8.91346 56.1767 9.21938C55.6162 9.50833 55.1213 9.90885 54.7227 10.3961C54.3162 10.8983 54.0044 11.4696 53.8023 12.0824C53.5874 12.7137 53.4779 13.3758 53.4782 14.0424C53.4702 14.7579 53.5907 15.469 53.8339 16.1424C54.0543 16.7568 54.3978 17.3203 54.8436 17.7986C55.2878 18.2666 55.8268 18.6353 56.425 18.8801C57.0753 19.144 57.7723 19.2749 58.4746 19.2651C58.994 19.2562 59.5075 19.1539 59.9905 18.9634C60.5321 18.7589 61.0013 18.4003 61.3398 17.9323H61.382V18.9123C61.3937 19.2392 61.3396 19.5651 61.2229 19.8708C61.1061 20.1765 60.929 20.4559 60.7021 20.6924C60.4141 20.946 60.0774 21.1388 59.7124 21.2592C59.3474 21.3795 58.9617 21.4248 58.5786 21.3924C57.9712 21.3991 57.3691 21.2785 56.8117 21.0382C56.257 20.7914 55.7395 20.4692 55.2739 20.0806L53.5379 22.6601C54.2475 23.2291 55.0769 23.6313 55.9644 23.8368C56.8426 24.0378 57.7408 24.139 58.6419 24.1385C60.6219 24.1385 62.0964 23.6422 63.0653 22.6496C64.0342 21.657 64.5189 20.2028 64.5193 18.2872V9.02128H61.6365L61.633 10.3541ZM61.4446 14.9664C61.3208 15.2627 61.1394 15.5318 60.9109 15.7581C60.6782 15.9889 60.4055 16.1758 60.1058 16.3097C59.7947 16.4472 59.458 16.5183 59.1176 16.5183C58.7771 16.5183 58.4405 16.4472 58.1293 16.3097C57.8337 16.1739 57.5645 15.9872 57.3341 15.7581C57.1046 15.5298 56.9225 15.2588 56.7983 14.9604C56.674 14.6621 56.6101 14.3423 56.6101 14.0193C56.6101 13.6963 56.674 13.3765 56.7983 13.0781C56.9225 12.7798 57.1046 12.5087 57.3341 12.2805C57.5646 12.0514 57.8338 11.8645 58.1293 11.7282C58.4406 11.5911 58.7772 11.5203 59.1176 11.5203C59.4579 11.5203 59.7945 11.5911 60.1058 11.7282C60.4053 11.8626 60.6781 12.0497 60.9109 12.2805C61.256 12.6259 61.4909 13.0651 61.5858 13.5431C61.6808 14.021 61.6316 14.5162 61.4446 14.9664Z" fill="black"/>
<path id="Vector_7" d="M76.306 10.219C75.7837 9.74631 75.1724 9.38156 74.5074 9.14587C73.079 8.64653 71.5223 8.64653 70.0939 9.14587C69.4287 9.38139 68.817 9.74615 68.2946 10.219C67.7822 10.6892 67.3729 11.2597 67.0923 11.8948C66.8022 12.5875 66.6528 13.3307 66.6528 14.0812C66.6528 14.8318 66.8022 15.5749 67.0923 16.2677C67.3719 16.9045 67.7813 17.4766 68.2946 17.9477C68.8165 18.421 69.4283 18.7856 70.0939 19.0201C71.5222 19.5203 73.0791 19.5203 74.5074 19.0201C75.1727 18.7854 75.7842 18.4208 76.306 17.9477C76.8193 17.4766 77.2288 16.9045 77.5084 16.2677C77.7984 15.5749 77.9478 14.8318 77.9478 14.0812C77.9478 13.3307 77.7984 12.5875 77.5084 11.8948C77.2277 11.2597 76.8184 10.6892 76.306 10.219ZM74.1516 15.9352C73.6436 16.3908 72.9841 16.6429 72.3003 16.6429C71.6165 16.6429 70.957 16.3908 70.449 15.9352C70.022 15.4104 69.789 14.7555 69.789 14.0802C69.789 13.4048 70.022 12.75 70.449 12.2252C70.957 11.7696 71.6165 11.5174 72.3003 11.5174C72.9841 11.5174 73.6436 11.7696 74.1516 12.2252C74.5786 12.75 74.8116 13.4048 74.8116 14.0802C74.8116 14.7555 74.5786 15.4104 74.1516 15.9352Z" fill="black"/>
<path id="Vector_8" d="M82.1096 9.09131H80.427V19.1412H82.1096V9.09131Z" fill="black"/>
<path id="Vector_9" d="M81.2687 3.93784C81.1055 3.93476 80.9435 3.9656 80.793 4.0284C80.6425 4.0912 80.5069 4.18457 80.3947 4.30254C80.2236 4.47426 80.1074 4.69255 80.0608 4.9299C80.0141 5.16725 80.039 5.41304 80.1325 5.6363C80.2259 5.85955 80.3836 6.05028 80.5857 6.18444C80.7879 6.3186 81.0254 6.39019 81.2683 6.39019C81.5112 6.39019 81.7487 6.3186 81.9509 6.18444C82.153 6.05028 82.3107 5.85955 82.4041 5.6363C82.4976 5.41304 82.5225 5.16725 82.4759 4.9299C82.4292 4.69255 82.313 4.47426 82.1419 4.30254C82.0299 4.18452 81.8944 4.0911 81.744 4.0283C81.5936 3.96549 81.4317 3.93468 81.2687 3.93784Z" fill="black"/>
<path id="Vector_10" d="M94.5556 10.3399C94.0823 9.85883 93.5129 9.48183 92.8843 9.23323C92.1943 8.96248 91.4581 8.82768 90.7165 8.83633C90.018 8.82834 89.3272 8.98295 88.6993 9.28783C88.0808 9.59401 87.5334 10.0253 87.0919 10.5541H87.0469V9.09113H85.3665V24.0375H87.0469V17.3595H87.0898C87.447 17.972 87.9676 18.474 88.5938 18.8099C89.3208 19.2152 90.1437 19.4192 90.9767 19.4007C91.6587 19.405 92.3343 19.2697 92.9616 19.0031C93.5673 18.7474 94.114 18.371 94.5682 17.8971C95.0295 17.4129 95.3922 16.8443 95.6363 16.2227C96.1538 14.8668 96.1538 13.3689 95.6363 12.0129C95.39 11.39 95.0228 10.8214 94.5556 10.3399ZM93.9622 15.5899C93.8053 16.0275 93.56 16.4284 93.2413 16.7678C92.9226 17.1072 92.5374 17.378 92.1094 17.5632C91.1632 17.949 90.1025 17.949 89.1563 17.5632C88.7277 17.378 88.342 17.107 88.0229 16.7672C87.7038 16.4274 87.4583 16.026 87.3015 15.5878C86.9712 14.6354 86.9712 13.6003 87.3015 12.6478C87.4583 12.2097 87.7038 11.8082 88.0229 11.4684C88.342 11.1286 88.7277 10.8577 89.1563 10.6724C90.1025 10.2866 91.1632 10.2866 92.1094 10.6724C92.538 10.8577 92.9238 11.1286 93.2428 11.4684C93.5619 11.8082 93.8074 12.2097 93.9643 12.6478C94.2945 13.6003 94.2945 14.6354 93.9643 15.5878L93.9622 15.5899Z" fill="black"/>
<path id="Vector_11" d="M104.5 14.12C104.18 13.882 103.824 13.6971 103.445 13.5726C103.029 13.4328 102.604 13.3215 102.173 13.2394C101.849 13.1844 101.529 13.1129 101.213 13.0252C100.931 12.949 100.657 12.8483 100.393 12.7242C100.182 12.6288 99.9906 12.4938 99.8304 12.3266C99.6941 12.1771 99.6209 11.9811 99.6258 11.7792C99.6225 11.5614 99.6865 11.3478 99.8093 11.1674C99.9302 10.9892 100.088 10.8391 100.273 10.7271C100.47 10.6083 100.685 10.5214 100.91 10.4695C101.14 10.4128 101.376 10.3839 101.613 10.3834C102.064 10.3694 102.509 10.4851 102.896 10.7166C103.245 10.9353 103.537 11.2332 103.748 11.586L105.15 10.6627C104.84 10.0524 104.335 9.56149 103.715 9.26621C103.091 8.97737 102.409 8.83078 101.72 8.83711C101.253 8.836 100.789 8.90105 100.34 9.03031C99.9101 9.15239 99.5022 9.34139 99.1315 9.59031C98.777 9.82858 98.4819 10.1444 98.2688 10.5136C98.0481 10.9068 97.9365 11.3513 97.9453 11.8016C97.9277 12.2424 98.0282 12.6799 98.2364 13.0693C98.4264 13.395 98.6915 13.6709 99.0099 13.8743C99.3613 14.095 99.7425 14.2649 100.142 14.379C100.574 14.5078 101.027 14.6224 101.501 14.7227C101.775 14.7801 102.041 14.8445 102.299 14.9159C102.541 14.9806 102.774 15.0782 102.99 15.2057C103.18 15.318 103.345 15.4679 103.475 15.646C103.604 15.8433 103.668 16.0762 103.658 16.3117C103.666 16.5592 103.598 16.8032 103.464 17.0117C103.33 17.2093 103.153 17.3744 102.947 17.4947C102.723 17.6274 102.479 17.7221 102.224 17.7747C101.965 17.8313 101.701 17.8601 101.436 17.8608C100.912 17.881 100.393 17.7544 99.9373 17.4954C99.5183 17.2299 99.1496 16.893 98.8481 16.5L97.5122 17.5311C97.9258 18.1705 98.5128 18.6802 99.2053 19.0011C99.9151 19.2816 100.674 19.4168 101.438 19.3987C101.935 19.3991 102.431 19.3416 102.914 19.2272C103.375 19.1213 103.813 18.936 104.209 18.6798C104.587 18.4298 104.9 18.0939 105.123 17.6998C105.364 17.2525 105.484 16.75 105.469 16.2424C105.482 15.806 105.394 15.3725 105.21 14.9761C105.043 14.6401 104.8 14.3471 104.5 14.12Z" fill="black"/>
<path id="Vector_12" d="M116.622 16.7577V9.09131H114.939V13.9913C114.945 14.5196 114.883 15.0464 114.756 15.5593C114.648 15.999 114.457 16.4142 114.193 16.7829C113.943 17.1257 113.609 17.3991 113.222 17.5774C112.778 17.7738 112.296 17.8695 111.81 17.8574C111.481 17.8839 111.151 17.8314 110.847 17.7043C110.543 17.5773 110.274 17.3794 110.062 17.1273C109.658 16.5418 109.46 15.8395 109.5 15.1302V9.09131H107.817V15.2975C107.812 15.8601 107.888 16.4205 108.044 16.9614C108.179 17.441 108.419 17.8849 108.747 18.2613C109.075 18.6293 109.484 18.9168 109.942 19.1013C110.488 19.3135 111.071 19.4158 111.657 19.4023C112.051 19.4055 112.444 19.351 112.822 19.2406C113.164 19.1416 113.49 18.9973 113.793 18.8115C114.068 18.6428 114.318 18.4369 114.536 18.1997C114.733 17.9887 114.897 17.7497 115.022 17.4906H115.065C115.065 17.7776 115.072 18.0576 115.087 18.3306C115.102 18.6036 115.109 18.8757 115.108 19.1468H116.705C116.705 18.8169 116.69 18.4517 116.661 18.0513C116.632 17.6509 116.619 17.2197 116.622 16.7577Z" fill="black"/>
<path id="Vector_13" d="M134.806 11.2927C134.694 10.8065 134.472 10.3518 134.158 9.96274C133.842 9.58633 133.433 9.29711 132.972 9.12274C132.392 8.91418 131.777 8.81588 131.16 8.83294C130.49 8.80381 129.828 8.97997 129.262 9.33764C128.737 9.71232 128.297 10.1915 127.968 10.7446C127.882 10.5724 127.77 10.3755 127.633 10.1538C127.481 9.91449 127.287 9.70363 127.062 9.53084C126.785 9.32108 126.476 9.15576 126.148 9.04084C125.706 8.89317 125.243 8.82398 124.777 8.83644C124.383 8.83321 123.991 8.88769 123.613 8.99814C123.271 9.09715 122.945 9.24148 122.642 9.42724C122.367 9.59621 122.117 9.80208 121.898 10.039C121.702 10.25 121.538 10.489 121.413 10.7481H121.369C121.369 10.4611 121.362 10.1825 121.348 9.90814C121.334 9.63374 121.326 9.36424 121.326 9.09194H119.73C119.73 9.42187 119.745 9.78704 119.773 10.1874C119.802 10.5878 119.816 11.0174 119.816 11.4761V19.1418H121.5V14.246C121.495 13.7175 121.556 13.1905 121.684 12.6773C121.791 12.2375 121.982 11.8222 122.246 11.4537C122.496 11.1109 122.83 10.8374 123.216 10.6592C123.661 10.4627 124.143 10.3671 124.63 10.3792C124.918 10.3548 125.207 10.4066 125.468 10.5296C125.73 10.6525 125.954 10.8422 126.117 11.0792C126.479 11.8158 126.635 12.6351 126.571 13.4522V19.1432H128.25V13.343C128.245 12.9297 128.315 12.5188 128.455 12.1299C128.58 11.7852 128.771 11.468 129.018 11.1961C129.251 10.9417 129.533 10.7371 129.848 10.5948C130.167 10.4513 130.513 10.378 130.862 10.3799C131.278 10.3649 131.691 10.4457 132.07 10.6158C132.369 10.7595 132.628 10.9736 132.825 11.2395C133.014 11.5028 133.147 11.8024 133.213 12.1194C133.285 12.4511 133.321 12.7895 133.321 13.1288V19.1418H135V13.0427C135.006 12.4538 134.941 11.8662 134.806 11.2927Z" fill="black"/>
</g>
</svg>
