<svg width="135" height="56" viewBox="0 0 135 56" fill="none" xmlns="http://www.w3.org/2000/svg">
<g clip-path="url(#clip0_1_291)">
<path d="M0 24.3354V29.2599C1.6828 29.2588 3.34932 29.5894 4.90419 30.233C6.45906 30.8766 7.87178 31.8204 9.0615 33.0106C10.2509 34.2002 11.1942 35.6127 11.8374 37.1672C12.4806 38.7217 12.8111 40.3877 12.81 42.07H17.731C17.7266 37.3684 15.8572 32.8607 12.533 29.5359C9.20887 26.2111 4.70151 24.3408 0 24.3354H0Z" fill="black"/>
<path d="M24.6099 15.47H16.8112C20.7564 17.9701 24.0992 21.3125 26.6 25.2574V17.4587C26.5996 16.9311 26.3898 16.4253 26.0166 16.0524C25.6434 15.6794 25.1374 15.47 24.6099 15.47Z" fill="black"/>
<path d="M4.9 15.47H0V19.9038C5.87703 19.9099 11.5116 22.2472 15.6674 26.4028C19.8231 30.5584 22.1606 36.1929 22.1669 42.07H26.6V37.17C25.5977 31.7845 22.988 26.8289 19.1146 22.9554C15.2411 19.082 10.2854 16.4723 4.9 15.47Z" fill="black"/>
<path d="M38.6617 18.3979H35.5383V34.1409H38.6617V18.3979Z" fill="black"/>
<path d="M50.1459 25.2189C49.6259 24.7462 49.0173 24.3814 48.3553 24.1458C46.9332 23.6464 45.3835 23.6464 43.9614 24.1458C43.2991 24.3813 42.6902 24.746 42.1701 25.2189C41.66 25.6891 41.2525 26.2596 40.9731 26.8947C40.6843 27.5874 40.5356 28.3305 40.5356 29.0811C40.5356 29.8317 40.6843 30.5748 40.9731 31.2676C41.2515 31.9044 41.6591 32.4765 42.1701 32.9476C42.6893 33.4207 43.2979 33.7853 43.96 34.02C45.3819 34.5202 46.932 34.5202 48.3539 34.02C49.0163 33.7853 49.625 33.4207 50.1445 32.9476C50.6553 32.4763 51.0629 31.9043 51.3415 31.2676C51.6303 30.5748 51.779 29.8317 51.779 29.0811C51.779 28.3305 51.6303 27.5874 51.3415 26.8947C51.0624 26.2598 50.6554 25.6894 50.1459 25.2189ZM48.0011 30.9351C47.4953 31.3907 46.8387 31.6428 46.158 31.6428C45.4773 31.6428 44.8207 31.3907 44.3149 30.9351C43.8898 30.4103 43.6578 29.7554 43.6578 29.0801C43.6578 28.4047 43.8898 27.7498 44.3149 27.2251C44.8207 26.7694 45.4773 26.5173 46.158 26.5173C46.8387 26.5173 47.4953 26.7694 48.0011 27.2251C48.4262 27.7498 48.6582 28.4047 48.6582 29.0801C48.6582 29.7554 48.4262 30.4103 48.0011 30.9351Z" fill="black"/>
<path d="M61.3592 25.3541H61.32C61.1756 25.1513 61.0078 24.9662 60.8202 24.8025C60.5929 24.6014 60.3413 24.4298 60.0712 24.2915C59.3885 23.9412 58.6307 23.7627 57.8634 23.7714C57.191 23.7596 56.5261 23.9135 55.9272 24.2194C55.3692 24.5083 54.8765 24.9088 54.4796 25.3961C54.0749 25.8983 53.7645 26.4696 53.5633 27.0824C53.3494 27.7137 53.2404 28.3758 53.2406 29.0424C53.2327 29.7579 53.3527 30.469 53.5948 31.1424C53.8142 31.7568 54.1562 32.3203 54.6 32.7986C55.0422 33.2666 55.5788 33.6353 56.1743 33.8801C56.8218 34.144 57.5157 34.2749 58.2148 34.2651C58.7319 34.2562 59.2432 34.1539 59.724 33.9634C60.2632 33.7589 60.7304 33.4003 61.0673 32.9323H61.1093V33.9123C61.121 34.2392 61.0671 34.5651 60.9509 34.8708C60.8346 35.1765 60.6583 35.4559 60.4324 35.6924C60.1457 35.946 59.8106 36.1388 59.4472 36.2592C59.0838 36.3795 58.6998 36.4248 58.3184 36.3924C57.7137 36.3991 57.1143 36.2785 56.5593 36.0382C56.0071 35.7914 55.4919 35.4692 55.0284 35.0806L53.3001 37.6601C54.0065 38.2291 54.8323 38.6313 55.7158 38.8368C56.5901 39.0378 57.4843 39.139 58.3814 39.1385C60.3526 39.1385 61.8205 38.6422 62.7851 37.6496C63.7497 36.657 64.2322 35.2028 64.2327 33.2872V24.0213H61.3627L61.3592 25.3541ZM61.1716 29.9664C61.0484 30.2627 60.8678 30.5318 60.6403 30.7581C60.4087 30.9889 60.1371 31.1758 59.8388 31.3097C59.529 31.4472 59.1939 31.5183 58.855 31.5183C58.516 31.5183 58.1809 31.4472 57.8711 31.3097C57.5768 31.1739 57.3087 30.9872 57.0794 30.7581C56.8509 30.5298 56.6696 30.2588 56.546 29.9604C56.4223 29.6621 56.3586 29.3423 56.3586 29.0193C56.3586 28.6963 56.4223 28.3765 56.546 28.0781C56.6696 27.7798 56.8509 27.5087 57.0794 27.2805C57.3089 27.0514 57.5769 26.8645 57.8711 26.7282C58.181 26.5911 58.5161 26.5203 58.855 26.5203C59.1938 26.5203 59.5289 26.5911 59.8388 26.7282C60.137 26.8626 60.4085 27.0497 60.6403 27.2805C60.9839 27.6259 61.2177 28.0651 61.3122 28.5431C61.4068 29.021 61.3578 29.5162 61.1716 29.9664Z" fill="black"/>
<path d="M75.9668 25.2189C75.4469 24.7462 74.8382 24.3814 74.1762 24.1458C72.7542 23.6464 71.2044 23.6464 69.7823 24.1458C69.1201 24.3813 68.5112 24.746 67.991 25.2189C67.4809 25.6891 67.0734 26.2596 66.794 26.8947C66.5052 27.5874 66.3566 28.3305 66.3566 29.0811C66.3566 29.8317 66.5052 30.5748 66.794 31.2676C67.0724 31.9044 67.48 32.4765 67.991 32.9476C68.5107 33.4209 69.1197 33.7855 69.7823 34.02C71.2043 34.5202 72.7543 34.5202 74.1762 34.02C74.8386 33.7853 75.4474 33.4207 75.9668 32.9476C76.4779 32.4765 76.8855 31.9044 77.1638 31.2676C77.4526 30.5748 77.6013 29.8317 77.6013 29.0811C77.6013 28.3305 77.4526 27.5874 77.1638 26.8947C76.8844 26.2596 76.4769 25.6891 75.9668 25.2189ZM73.822 30.9351C73.3163 31.3907 72.6597 31.6428 71.9789 31.6428C71.2982 31.6428 70.6416 31.3907 70.1358 30.9351C69.7107 30.4103 69.4788 29.7554 69.4788 29.0801C69.4788 28.4047 69.7107 27.7498 70.1358 27.2251C70.6416 26.7694 71.2982 26.5173 71.9789 26.5173C72.6597 26.5173 73.3163 26.7694 73.822 27.2251C74.2471 27.7498 74.4791 28.4047 74.4791 29.0801C74.4791 29.7554 74.2471 30.4103 73.822 30.9351Z" fill="black"/>
<path d="M81.7446 24.0911H80.0695V34.141H81.7446V24.0911Z" fill="black"/>
<path d="M80.9074 18.9377C80.7449 18.9346 80.5837 18.9655 80.4338 19.0283C80.284 19.0911 80.1489 19.1844 80.0373 19.3024C79.8669 19.4741 79.7513 19.6924 79.7048 19.9298C79.6584 20.1671 79.6832 20.4129 79.7762 20.6362C79.8692 20.8594 80.0262 21.0502 80.2275 21.1843C80.4287 21.3185 80.6652 21.3901 80.907 21.3901C81.1489 21.3901 81.3853 21.3185 81.5865 21.1843C81.7878 21.0502 81.9448 20.8594 82.0378 20.6362C82.1308 20.4129 82.1557 20.1671 82.1092 19.9298C82.0627 19.6924 81.9471 19.4741 81.7768 19.3024C81.6653 19.1844 81.5303 19.091 81.3806 19.0282C81.2309 18.9654 81.0697 18.9346 80.9074 18.9377Z" fill="black"/>
<path d="M94.1354 25.3399C93.6641 24.8588 93.0973 24.4818 92.4715 24.2332C91.7846 23.9625 91.0516 23.8277 90.3134 23.8363C89.6179 23.8283 88.9302 23.983 88.3051 24.2878C87.6894 24.594 87.1444 25.0253 86.7049 25.5541H86.6601V24.0911H84.9871V39.0375H86.6601V32.3595H86.7028C87.0583 32.972 87.5766 33.474 88.2001 33.8099C88.9239 34.2152 89.743 34.4192 90.5724 34.4007C91.2514 34.405 91.924 34.2697 92.5485 34.0031C93.1515 33.7474 93.6958 33.371 94.148 32.8971C94.6071 32.4129 94.9682 31.8443 95.2113 31.2227C95.7265 29.8668 95.7265 28.3689 95.2113 27.0129C94.9661 26.39 94.6005 25.8214 94.1354 25.3399ZM93.5446 30.5899C93.3884 31.0275 93.1442 31.4284 92.8269 31.7678C92.5097 32.1072 92.1261 32.378 91.7001 32.5632C90.758 32.949 89.7021 32.949 88.7601 32.5632C88.3334 32.378 87.9493 32.107 87.6317 31.7672C87.314 31.4274 87.0696 31.026 86.9135 30.5878C86.5846 29.6354 86.5846 28.6002 86.9135 27.6478C87.0696 27.2097 87.314 26.8082 87.6317 26.4684C87.9493 26.1286 88.3334 25.8577 88.7601 25.6724C89.7021 25.2866 90.758 25.2866 91.7001 25.6724C92.1267 25.8577 92.5108 26.1286 92.8284 26.4684C93.1461 26.8082 93.3905 27.2097 93.5467 27.6478C93.8755 28.6002 93.8755 29.6354 93.5467 30.5878L93.5446 30.5899Z" fill="black"/>
<path d="M104.035 29.12C103.717 28.882 103.363 28.6971 102.985 28.5726C102.571 28.4328 102.148 28.3215 101.718 28.2394C101.397 28.1844 101.078 28.1129 100.763 28.0252C100.483 27.949 100.209 27.8483 99.9468 27.7242C99.7364 27.6288 99.5462 27.4938 99.3868 27.3266C99.2511 27.1771 99.1781 26.9811 99.1831 26.7792C99.1798 26.5614 99.2435 26.3478 99.3658 26.1674C99.4861 25.9892 99.6435 25.8391 99.8271 25.7271C100.024 25.6083 100.238 25.5214 100.461 25.4695C100.69 25.4128 100.925 25.3839 101.161 25.3834C101.61 25.3694 102.054 25.4851 102.439 25.7166C102.786 25.9353 103.077 26.2332 103.287 26.586L104.683 25.6627C104.374 25.0524 103.871 24.5615 103.254 24.2662C102.632 23.9774 101.954 23.8308 101.268 23.8371C100.803 23.836 100.341 23.9011 99.8942 24.0303C99.4661 24.1524 99.06 24.3414 98.691 24.5903C98.338 24.8286 98.0442 25.1444 97.832 25.5136C97.6123 25.9068 97.5012 26.3513 97.5101 26.8016C97.4926 27.2424 97.5926 27.6799 97.7999 28.0693C97.9889 28.395 98.2529 28.6709 98.5698 28.8743C98.9198 29.095 99.2992 29.2649 99.6968 29.379C100.127 29.5078 100.578 29.6224 101.05 29.7227C101.322 29.7801 101.587 29.8445 101.844 29.9159C102.086 29.9806 102.317 30.0782 102.532 30.2057C102.721 30.318 102.886 30.4679 103.015 30.646C103.144 30.8433 103.208 31.0762 103.198 31.3117C103.205 31.5592 103.138 31.8032 103.004 32.0117C102.871 32.2093 102.695 32.3744 102.489 32.4947C102.267 32.6274 102.023 32.7221 101.77 32.7747C101.512 32.8313 101.249 32.8601 100.986 32.8608C100.464 32.881 99.9466 32.7544 99.4931 32.4954C99.076 32.2299 98.709 31.893 98.4089 31.5L97.0789 32.5311C97.4906 33.1705 98.075 33.6802 98.7644 34.0011C99.4711 34.2816 100.227 34.4168 100.987 34.3987C101.482 34.3991 101.975 34.3416 102.457 34.2272C102.915 34.1213 103.351 33.936 103.746 33.6798C104.122 33.4298 104.434 33.0939 104.656 32.6998C104.896 32.2525 105.015 31.75 105 31.2424C105.014 30.806 104.925 30.3725 104.742 29.9761C104.576 29.6401 104.334 29.3471 104.035 29.12Z" fill="black"/>
<path d="M116.103 31.7575V24.0911H114.428V28.9911C114.434 29.5193 114.372 30.0462 114.246 30.5591C114.138 30.9987 113.948 31.414 113.686 31.7827C113.436 32.1254 113.103 32.3989 112.719 32.5772C112.277 32.7736 111.796 32.8692 111.313 32.8572C110.985 32.8836 110.657 32.8311 110.354 32.7041C110.051 32.577 109.783 32.3791 109.573 32.1271C109.171 31.5416 108.974 30.8393 109.013 30.13V24.0911H107.338V30.2973C107.333 30.8598 107.409 31.4202 107.563 31.9612C107.698 32.4407 107.937 32.8846 108.263 33.2611C108.59 33.6291 108.997 33.9166 109.453 34.1011C109.997 34.3132 110.577 34.4155 111.161 34.4021C111.553 34.4052 111.944 34.3508 112.321 34.2404C112.66 34.1414 112.985 33.997 113.287 33.8113C113.561 33.6425 113.81 33.4366 114.027 33.1995C114.223 32.9884 114.386 32.7495 114.511 32.4904H114.554C114.554 32.7774 114.561 33.0574 114.575 33.3304C114.59 33.6034 114.597 33.8754 114.596 34.1466H116.186C116.186 33.8166 116.172 33.4515 116.143 33.0511C116.114 32.6507 116.101 32.2195 116.103 31.7575Z" fill="black"/>
<path d="M134.207 26.2927C134.095 25.8065 133.875 25.3518 133.562 24.9627C133.247 24.5863 132.84 24.2971 132.381 24.1227C131.803 23.9142 131.191 23.8159 130.577 23.8329C129.911 23.8038 129.251 23.98 128.687 24.3376C128.165 24.7123 127.727 25.1915 127.399 25.7446C127.313 25.5724 127.202 25.3755 127.066 25.1538C126.914 24.9145 126.722 24.7036 126.497 24.5308C126.221 24.3211 125.914 24.1558 125.587 24.0408C125.148 23.8932 124.686 23.824 124.223 23.8364C123.83 23.8332 123.44 23.8877 123.064 23.9981C122.723 24.0971 122.398 24.2415 122.097 24.4272C121.823 24.5962 121.574 24.8021 121.356 25.039C121.161 25.25 120.998 25.489 120.873 25.7481H120.83C120.83 25.4611 120.823 25.1825 120.809 24.9081C120.795 24.6337 120.787 24.3642 120.787 24.0919H119.198C119.198 24.4219 119.212 24.787 119.241 25.1874C119.269 25.5878 119.284 26.0174 119.284 26.4761V34.1418H120.96V29.246C120.955 28.7175 121.016 28.1905 121.143 27.6773C121.25 27.2375 121.44 26.8222 121.703 26.4537C121.952 26.1109 122.284 25.8374 122.669 25.6592C123.111 25.4627 123.592 25.3671 124.076 25.3792C124.362 25.3548 124.651 25.4066 124.911 25.5296C125.171 25.6525 125.394 25.8422 125.557 26.0792C125.917 26.8158 126.072 27.6351 126.008 28.4522V34.1432H127.68V28.343C127.675 27.9297 127.744 27.5188 127.884 27.1299C128.009 26.7852 128.199 26.468 128.444 26.1961C128.676 25.9417 128.958 25.7371 129.271 25.5948C129.588 25.4513 129.933 25.378 130.281 25.3799C130.694 25.3649 131.106 25.4457 131.483 25.6158C131.78 25.7595 132.038 25.9736 132.234 26.2395C132.423 26.5028 132.555 26.8024 132.621 27.1194C132.693 27.4511 132.729 27.7895 132.728 28.1288V34.1418H134.4V28.0427C134.406 27.4538 134.341 26.8662 134.207 26.2927Z" fill="black"/>
</g>
<defs>
<clipPath id="clip0_1_291">
<rect width="134.4" height="56" fill="white"/>
</clipPath>
</defs>
</svg>
